# xmcd
#
# Track frame offsets: 
#        150
#        9558
#        20460
#        38623
#        52241
#        66585
#        78237
#        86301
#        97021
#        110345
#        125562
#        142554
#        157819
#        166978
#
# Disc length: 2441 seconds
#
# Revision: 0
# Processed by: cddbd v1.5.2PL0 Copyright (c) Steve Scherf et al.
# Submitted via: ExactAudioCopyFreeDBPlugin 1.0
#
DISCID=a709870e
DTITLE=Delaney Davidson - Bad Luck Man
DYEAR=2011
DGENRE=Blues
TTITLE0=Bad Luck Man
TTITLE1=I'm So Depressed
TTITLE2=Time Has Gone
TTITLE3=Another Man's Eyes
TTITLE4=You're A Loser
TTITLE5=I Saw The Light From Heaven
TTITLE6=I've Got The Devil Inside
TTITLE7=So Long
TTITLE8=River Of Misery
TTITLE9=I Told A Secret
TTITLE10=It's So Good
TTITLE11=Windy City
TTITLE12=Something Of Your Own
TTITLE13=How Lucky You Are
EXTD=
EXTT0=
EXTT1=
EXTT2=
EXTT3=
EXTT4=
EXTT5=
EXTT6=
EXTT7=
EXTT8=
EXTT9=
EXTT10=
EXTT11=
EXTT12=
EXTT13=
PLAYORDER=
